# xmcd
#
# Track frame offsets: 
#        150
#        13302
#        25212
#        37747
#        49939
#        56812
#        69647
#        82835
#        96167
#        109742
#        120882
#        132562
#        144667
#        157365
#        170282
#        180952
#        193360
#        206505
#        218950
#
# Disc length: 3089 seconds
#
# Revision: 1
# Processed by: cddbd v1.5.1PL0 Copyright (c) Steve Scherf et al.
# Submitted via: ExactAudioCopy v0.95a5
#
DISCID=130c0f13
DTITLE=George Morgan - Room Full Of Roses: The George Morgan Collectio
DTITLE=n
DYEAR=1996
DGENRE=Country
TTITLE0=Candy Kisses
TTITLE1=Please Don't Let Me Love You
TTITLE2=Rainbow In My Heart
TTITLE3=All I Need Is Some More Lovin'
TTITLE4=Room Full Of Roses
TTITLE5=Cry Baby Heart
TTITLE6=I Love Everything About You
TTITLE7=Almost
TTITLE8=(I Just Had A Date) A Lover's Quarrel
TTITLE9=There Goes My Love
TTITLE10=I'm In Love Again
TTITLE11=You're The Only Good Thing (That's Happened To Me)
TTITLE12=One Dozen Roses (And Our Love)
TTITLE13=All Right I'll Sign The Papers
TTITLE14=Slipping Around (duet with Marion Worth)
TTITLE15=Mr. Ting-A-Ling (Steel Guitar Man)
TTITLE16=Red Rose From The Blue Side Of Town
TTITLE17=In The Misty Moonlight
TTITLE18=I'm Completely Satisfied With You
EXTD=
EXTT0=
EXTT1=
EXTT2=
EXTT3=
EXTT4=
EXTT5=
EXTT6=
EXTT7=
EXTT8=
EXTT9=
EXTT10=
EXTT11=
EXTT12=
EXTT13=
EXTT14=With Marion Worth
EXTT15=
EXTT16=
EXTT17=
EXTT18=
PLAYORDER=
